<svg width="981" height="398" viewBox="0 0 981 398" fill="none" xmlns="http://www.w3.org/2000/svg">
<path fill-rule="evenodd" clip-rule="evenodd" d="M745.539 248.474C740.258 252.514 737.088 256.051 731.808 260.092C724.417 267.167 710.163 273.731 707.523 273.731C703.83 272.72 697.491 267.166 696.439 260.597C694.321 263.629 683.767 270.196 675.846 269.185C668.984 268.68 663.703 265.142 660.534 259.586C660.534 259.586 645.228 270.701 630.974 269.69C620.413 268.68 621.995 255.041 624.106 248.474C624.106 252.009 593.488 269.69 587.154 269.185C580.29 268.68 576.596 265.142 576.596 251.504C568.676 256.557 563.398 261.102 556.532 267.669C550.725 273.731 545.975 278.279 540.167 285.351L532.248 278.784L542.806 257.567C535.945 262.113 531.192 265.142 524.328 269.69C517.994 273.731 514.297 277.771 506.905 281.308C502.683 282.825 497.404 282.825 494.763 279.29C491.069 275.752 496.347 260.597 496.875 260.597C490.541 264.637 484.205 269.185 479.452 275.247C475.23 279.29 471.535 288.886 468.366 289.392C465.726 289.392 461.503 289.897 460.975 286.865C459.391 283.33 464.141 262.619 466.254 259.586L457.809 265.65C451.999 270.701 448.305 274.236 443.026 278.279C434.579 284.846 428.241 290.4 417.683 292.423C411.348 293.937 405.541 294.442 399.734 291.918C392.871 289.897 387.59 284.846 384.423 277.771C381.255 280.3 378.617 281.814 372.807 283.33C368.056 284.846 363.834 286.36 360.665 281.814C356.442 275.752 359.609 264.132 360.665 263.124C359.08 264.132 349.051 272.217 343.772 278.279C340.075 282.825 335.853 286.865 332.156 291.413L322.126 286.865L333.74 253.022C327.405 259.586 321.598 264.132 314.207 269.185C297.314 280.3 284.644 293.434 272.499 293.434C264.58 293.434 259.301 289.897 257.191 281.814C255.607 274.742 256.135 264.637 260.885 257.062C268.805 244.939 272.499 238.875 280.419 229.278C288.866 220.69 295.73 215.134 306.816 211.596C311.569 210.083 316.847 213.113 319.486 217.155C322.654 221.701 322.126 228.268 321.598 234.329C320.014 242.412 315.791 248.474 309.456 254.032C305.231 256.557 301.008 261.102 296.258 261.102C290.976 261.102 285.698 257.567 283.588 252.514C281.473 253.022 273.027 264.637 272.499 272.217C271.971 276.257 271.971 281.814 276.194 283.33C278.834 284.34 281.473 282.319 284.644 281.814C293.617 278.279 299.424 272.72 306.816 267.669C322.655 256.557 332.156 247.969 344.3 233.824L353.276 239.38L342.188 267.669C350.636 260.597 356.442 255.041 363.834 247.463C372.807 237.864 379.673 231.805 387.59 221.195L396.037 227.257C389.705 234.834 387.062 241.907 382.311 249.99C378.088 257.567 371.225 269.69 375.45 272.72C377.032 275.247 381.255 271.712 384.423 269.69C388.648 258.578 393.399 251.504 401.847 241.907C411.348 231.805 421.908 223.722 432.466 218.166C438.273 215.134 444.082 214.123 448.305 217.66C453.055 220.185 455.168 225.741 453.584 231.299C451.471 238.875 447.249 242.412 439.857 244.939C436.688 246.958 431.938 246.452 429.828 243.928C428.241 240.393 428.241 236.351 429.828 233.824C425.074 235.34 415.573 241.907 409.764 249.99C403.957 257.567 399.206 263.629 399.206 273.731C399.206 279.29 404.485 284.34 410.292 284.846C420.852 286.865 430.884 279.795 439.857 274.236C444.082 270.701 447.249 268.175 450.943 264.637L453.584 262.619C454.64 261.607 455.168 261.102 457.809 259.084C458.863 257.567 459.919 256.557 460.447 255.546V256.051C462.56 254.032 464.141 252.009 465.726 249.99C474.702 237.864 478.396 227.257 485.79 213.113C529.079 136.329 567.62 74.7039 606.689 20.1447L614.603 27.2171C571.315 85.3095 548.615 124.204 512.186 186.845C498.46 212.101 480.508 244.434 478.924 255.041C478.924 260.092 479.452 260.092 479.98 264.637C486.316 259.084 493.707 252.009 500.57 244.434C507.961 235.34 513.768 229.784 520.631 221.195L531.72 230.289C528.023 233.824 520.631 244.434 516.409 252.514C512.714 257.567 507.433 267.669 511.13 269.185C514.297 270.196 530.136 258.578 539.639 250.495C550.725 241.401 558.645 234.329 567.62 222.206L579.762 222.711L567.62 247.463C573.953 242.412 576.596 238.875 583.985 233.319C590.323 229.784 591.376 228.773 594.546 225.741C595.599 224.228 600.879 220.69 603.519 222.711C608.271 225.741 604.578 232.816 602.467 235.34C598.768 241.401 594.546 246.452 593.488 252.514C590.851 265.142 615.133 246.452 625.164 237.864C634.138 231.299 645.757 219.176 654.201 212.607C656.312 210.588 661.592 210.588 663.18 213.618C665.814 216.65 663.18 219.176 660.534 222.206C653.142 231.805 641.006 247.463 638.889 254.032C636.778 259.084 638.889 259.084 639.947 260.597C642.058 262.113 646.809 259.586 650.508 257.567C654.73 255.546 661.592 252.514 662.122 252.009C665.285 244.434 673.735 235.845 682.708 228.773C693.269 220.69 698.02 217.66 710.163 212.607C716.496 210.083 725.475 207.051 729.168 212.607C730.756 215.639 729.168 220.69 728.645 222.206C730.226 221.195 733.919 220.69 734.448 222.711C737.089 227.257 733.919 229.278 732.867 232.31C729.697 239.886 723.887 245.444 720.195 251.504C719.142 253.022 718.613 256.051 720.195 256.557C723.887 257.062 731.279 251.504 737.618 245.444L754.512 230.289C760.321 224.73 765.073 219.176 770.876 213.618C772.458 212.607 784.077 184.32 795.691 178.257C798.86 176.237 805.723 180.278 805.723 184.826C806.775 193.917 785.659 212.101 786.718 213.618C793.58 218.166 798.86 218.166 802.553 224.228C807.304 234.329 788.829 246.958 791.469 253.022C793.58 257.062 819.447 240.899 833.177 227.257C834.23 226.246 864.325 170.678 884.382 136.329C914.477 85.3094 934.54 55.5066 967.799 6L981 12.572C947.735 59.5463 928.73 89.349 898.642 139.362C881.219 169.671 869.605 188.866 853.234 220.185C862.207 215.639 868.017 212.607 877.52 209.072C889.133 204.526 897.06 202 909.726 198.968L913.425 209.578C901.805 212.101 893.361 215.134 881.742 220.185C870.658 225.236 864.325 228.268 854.293 234.329C862.737 246.958 869.605 254.535 880.689 265.142C893.361 278.279 902.864 286.865 918.699 296.969L909.196 307.576C892.832 296.969 882.8 288.886 868.547 275.247C857.463 264.637 850.071 256.557 841.092 244.434C837.399 250.495 833.177 255.546 830.537 262.619C827.368 269.69 824.727 275.752 822.616 283.33L811.526 276.763C813.114 270.701 814.696 266.155 817.336 260.092C818.394 257.062 822.087 250.495 824.198 245.444C817.336 250.495 811.003 254.032 804.141 258.578C797.802 262.113 793.58 264.637 786.188 264.637C783.548 264.637 780.379 261.102 781.437 253.022C782.49 248.979 790.41 237.864 790.94 231.299C790.94 227.257 778.268 225.741 776.157 223.722C775.104 222.206 775.104 221.195 775.104 220.185C769.295 224.228 766.125 228.268 760.845 232.816C755.041 238.875 750.819 243.423 745.539 248.474ZM292.033 251.504C295.202 252.009 301.537 246.958 304.703 242.412C307.872 239.38 312.097 235.34 312.622 231.299C313.15 227.764 315.263 222.206 312.622 220.185C308.928 218.166 302.593 224.228 297.842 228.268C293.617 232.816 289.394 238.875 287.81 242.917C287.282 246.452 288.338 250.495 292.033 251.504ZM679.016 261.102C683.237 265.142 696.968 254.032 704.882 246.452C711.751 239.886 721.247 225.741 721.247 225.741C707.523 225.741 699.079 233.319 691.158 240.393C685.878 245.444 675.317 256.557 679.016 261.102Z" fill="#3A3A3A"/>
<path fill-rule="evenodd" clip-rule="evenodd" d="M167.438 136.329C179.055 124.711 216.009 105.013 250.325 94.9081C271.443 88.3422 297.842 84.3026 319.486 82.7831C339.55 82.2767 368.056 87.8357 369.112 100.461C370.697 108.546 352.22 117.639 333.212 126.731C314.735 135.323 290.976 141.888 253.494 151.994C224.457 160.073 206.508 165.632 176.414 171.691C169.023 173.205 163.216 175.224 155.296 176.237C164.272 178.257 170.607 180.783 179.583 184.32C189.084 187.35 196.476 191.393 205.451 196.443C253.494 193.414 283.588 192.403 332.156 192.908C376.504 193.917 402.903 194.422 447.249 197.455L444.61 204.021C400.788 202 374.391 200.484 330.574 200.484C288.866 199.978 263.523 201.495 221.816 203.01C227.623 205.537 240.821 214.628 248.215 224.228C253.494 231.299 259.829 237.361 259.829 247.969C258.245 264.132 245.046 274.236 229.21 281.814C213.369 290.4 198.06 293.937 173.245 297.98C145.793 302.525 116.227 302.525 106.726 302.02C96.6961 301.01 86.1363 299.493 79.7984 298.988L22.7828 398L9.58435 389.917L66.0723 296.463C56.0425 296.969 40.2035 291.413 26.4773 284.846C16.9757 280.3 8 274.236 8 261.607C8 252.009 15.9194 243.928 25.4205 237.361C38.0938 229.784 46.0133 226.246 60.7956 222.206C80.3265 216.65 99.3344 211.596 115.173 210.083L129.428 185.328L101.447 181.793L101.975 176.237C109.895 175.731 115.173 175.224 122.565 174.218C128.9 173.205 134.179 171.691 140.514 170.678C148.433 156.534 160.575 144.415 167.438 136.329ZM278.306 95.4146C247.687 101.981 224.457 111.579 201.757 124.204C186.444 132.79 170.607 147.948 156.881 167.652C193.309 160.579 215.484 155.527 250.853 144.921C282.531 136.329 308.928 128.25 332.684 118.145C343.244 114.606 349.051 111.579 352.22 108.04C353.802 106.527 359.609 104.507 359.609 99.9607C359.609 95.4146 353.276 93.8952 350.635 93.8952C321.598 88.3422 305.231 90.362 278.306 95.4146ZM155.825 202.505C169.023 200.484 174.302 199.473 184.859 198.968C176.942 194.928 171.661 192.908 163.216 190.887C155.825 189.371 150.546 187.855 143.68 187.35L133.122 207.051C141.042 205.537 144.736 204.526 155.825 202.505ZM71.8815 284.846L110.423 220.69C102.501 220.69 69.2431 227.257 46.5414 236.856C33.8687 242.917 18.5603 252.514 18.5603 261.102C18.5603 270.701 28.064 274.742 37.0371 278.279C47.0694 283.33 66.0723 284.846 71.8815 284.846ZM87.7205 286.36C112.004 289.392 126.259 289.392 150.546 287.875C181.693 286.36 191.725 283.33 209.674 276.763C227.623 271.207 246.103 261.102 246.103 247.969C246.631 236.856 229.21 221.701 217.594 213.618C212.84 210.083 204.923 207.051 201.757 206.545C188.556 207.051 178.527 208.061 164.272 210.083C151.074 211.596 142.626 214.123 129.428 217.155L87.7205 286.36Z" fill="#3A3A3A"/>
<path d="M921.5 218V218.5H922H924.027H924.527V218V211.859H927.689C927.733 211.859 927.776 211.859 927.819 211.859L931.204 218.234L931.345 218.5H931.646H934H934.838L934.44 217.763L930.923 211.243C930.989 211.212 931.054 211.18 931.118 211.146L931.12 211.145C932.036 210.659 932.731 209.98 933.185 209.108C933.63 208.252 933.846 207.283 933.846 206.213C933.846 205.143 933.63 204.169 933.186 203.303C932.733 202.42 932.035 201.732 931.114 201.24C930.18 200.735 929.018 200.5 927.657 200.5H922H921.5V201V218ZM927.624 209H924.527V203.326H927.591C928.451 203.326 929.091 203.461 929.546 203.694L929.546 203.694L929.549 203.696C930.011 203.928 930.329 204.246 930.527 204.649C930.738 205.077 930.851 205.594 930.851 206.213C930.851 206.833 930.737 207.338 930.53 207.746L930.529 207.748C930.339 208.125 930.029 208.427 929.565 208.651L929.565 208.651L929.563 208.652C929.111 208.872 928.475 209 927.624 209Z" fill="#CC0A20" stroke="#CC0A20"/>
<circle cx="927" cy="209" r="19" stroke="#CC0A20" stroke-width="4"/>
<path fill-rule="evenodd" clip-rule="evenodd" d="M737.539 242.474C732.258 246.514 729.088 250.051 723.808 254.092C716.417 261.167 702.163 267.731 699.523 267.731C695.83 266.72 689.491 261.166 688.439 254.597C686.321 257.629 675.767 264.196 667.846 263.185C660.984 262.68 655.703 259.142 652.534 253.586C652.534 253.586 637.228 264.701 622.974 263.69C612.413 262.68 613.995 249.041 616.106 242.474C616.106 246.009 585.488 263.69 579.154 263.185C572.29 262.68 568.596 259.142 568.596 245.504C560.676 250.557 555.398 255.102 548.532 261.669C542.725 267.731 537.975 272.279 532.167 279.351L524.248 272.784L534.806 251.567C527.945 256.113 523.192 259.142 516.328 263.69C509.994 267.731 506.297 271.771 498.905 275.308C494.683 276.825 489.404 276.825 486.763 273.29C483.069 269.752 488.347 254.597 488.875 254.597C482.541 258.637 476.205 263.185 471.452 269.247C467.23 273.29 463.535 282.886 460.366 283.392C457.726 283.392 453.503 283.897 452.975 280.865C451.391 277.33 456.141 256.619 458.254 253.586L449.809 259.65C443.999 264.701 440.305 268.236 435.026 272.279C426.579 278.846 420.241 284.4 409.683 286.423C403.348 287.937 397.541 288.442 391.734 285.918C384.871 283.897 379.59 278.846 376.423 271.771C373.255 274.3 370.617 275.814 364.807 277.33C360.056 278.846 355.834 280.36 352.665 275.814C348.442 269.752 351.609 258.132 352.665 257.124C351.08 258.132 341.051 266.217 335.772 272.279C332.075 276.825 327.853 280.865 324.156 285.413L314.126 280.865L325.74 247.022C319.405 253.586 313.598 258.132 306.207 263.185C289.314 274.3 276.644 287.434 264.499 287.434C256.58 287.434 251.301 283.897 249.191 275.814C247.607 268.742 248.135 258.637 252.885 251.062C260.805 238.939 264.499 232.875 272.419 223.278C280.866 214.69 287.73 209.134 298.816 205.596C303.569 204.083 308.847 207.113 311.486 211.155C314.654 215.701 314.126 222.268 313.598 228.329C312.014 236.412 307.791 242.474 301.456 248.032C297.231 250.557 293.008 255.102 288.258 255.102C282.976 255.102 277.698 251.567 275.588 246.514C273.473 247.022 265.027 258.637 264.499 266.217C263.971 270.257 263.971 275.814 268.194 277.33C270.834 278.34 273.473 276.319 276.644 275.814C285.617 272.279 291.424 266.72 298.816 261.669C314.655 250.557 324.156 241.969 336.3 227.824L345.276 233.38L334.188 261.669C342.636 254.597 348.442 249.041 355.834 241.463C364.807 231.864 371.673 225.805 379.59 215.195L388.037 221.257C381.705 228.834 379.062 235.907 374.311 243.99C370.088 251.567 363.225 263.69 367.45 266.72C369.032 269.247 373.255 265.712 376.423 263.69C380.648 252.578 385.399 245.504 393.847 235.907C403.348 225.805 413.908 217.722 424.466 212.166C430.273 209.134 436.082 208.123 440.305 211.66C445.055 214.185 447.168 219.741 445.584 225.299C443.471 232.875 439.249 236.412 431.857 238.939C428.688 240.958 423.938 240.452 421.828 237.928C420.241 234.393 420.241 230.351 421.828 227.824C417.074 229.34 407.573 235.907 401.764 243.99C395.957 251.567 391.206 257.629 391.206 267.731C391.206 273.29 396.485 278.34 402.292 278.846C412.852 280.865 422.884 273.795 431.857 268.236C436.082 264.701 439.249 262.175 442.943 258.637L445.584 256.619C446.64 255.607 447.168 255.102 449.809 253.084C450.863 251.567 451.919 250.557 452.447 249.546V250.051C454.56 248.032 456.141 246.009 457.726 243.99C466.702 231.864 470.396 221.257 477.79 207.113C521.079 130.329 559.62 68.7039 598.689 14.1447L606.603 21.2171C563.315 79.3095 540.615 118.204 504.186 180.845C490.46 206.101 472.508 238.434 470.924 249.041C470.924 254.092 471.452 254.092 471.98 258.637C478.316 253.084 485.707 246.009 492.57 238.434C499.961 229.34 505.768 223.784 512.631 215.195L523.72 224.289C520.023 227.824 512.631 238.434 508.409 246.514C504.714 251.567 499.433 261.669 503.13 263.185C506.297 264.196 522.136 252.578 531.639 244.495C542.725 235.401 550.645 228.329 559.62 216.206L571.762 216.711L559.62 241.463C565.953 236.412 568.596 232.875 575.985 227.319C582.323 223.784 583.376 222.773 586.546 219.741C587.599 218.228 592.879 214.69 595.519 216.711C600.271 219.741 596.578 226.816 594.467 229.34C590.768 235.401 586.546 240.452 585.488 246.514C582.851 259.142 607.133 240.452 617.164 231.864C626.138 225.299 637.757 213.176 646.201 206.607C648.312 204.588 653.592 204.588 655.18 207.618C657.814 210.65 655.18 213.176 652.534 216.206C645.142 225.805 633.006 241.463 630.889 248.032C628.778 253.084 630.889 253.084 631.947 254.597C634.058 256.113 638.809 253.586 642.508 251.567C646.73 249.546 653.592 246.514 654.122 246.009C657.285 238.434 665.735 229.845 674.708 222.773C685.269 214.69 690.02 211.66 702.163 206.607C708.496 204.083 717.475 201.051 721.168 206.607C722.756 209.639 721.168 214.69 720.645 216.206C722.226 215.195 725.919 214.69 726.448 216.711C729.089 221.257 725.919 223.278 724.867 226.31C721.697 233.886 715.887 239.444 712.195 245.504C711.142 247.022 710.613 250.051 712.195 250.557C715.887 251.062 723.279 245.504 729.618 239.444L746.512 224.289C752.321 218.73 757.073 213.176 762.876 207.618C764.458 206.607 776.077 178.32 787.691 172.257C790.86 170.237 797.723 174.278 797.723 178.826C798.775 187.917 777.659 206.101 778.718 207.618C785.58 212.166 790.86 212.166 794.553 218.228C799.304 228.329 780.829 240.958 783.469 247.022C785.58 251.062 811.447 234.899 825.177 221.257C826.23 220.246 856.325 164.678 876.382 130.329C906.477 79.3094 926.54 49.5066 959.799 0L973 6.57201C939.735 53.5463 920.73 83.349 890.642 133.362C873.219 163.671 861.605 182.866 845.234 214.185C854.207 209.639 860.017 206.607 869.52 203.072C881.133 198.526 889.06 196 901.726 192.968L905.425 203.578C893.805 206.101 885.361 209.134 873.742 214.185C862.658 219.236 856.325 222.268 846.293 228.329C854.737 240.958 861.605 248.535 872.689 259.142C885.361 272.279 894.864 280.865 910.699 290.969L901.196 301.576C884.832 290.969 874.8 282.886 860.547 269.247C849.463 258.637 842.071 250.557 833.092 238.434C829.399 244.495 825.177 249.546 822.537 256.619C819.368 263.69 816.727 269.752 814.616 277.33L803.526 270.763C805.114 264.701 806.696 260.155 809.336 254.092C810.394 251.062 814.087 244.495 816.198 239.444C809.336 244.495 803.003 248.032 796.141 252.578C789.802 256.113 785.58 258.637 778.188 258.637C775.548 258.637 772.379 255.102 773.437 247.022C774.49 242.979 782.41 231.864 782.94 225.299C782.94 221.257 770.268 219.741 768.157 217.722C767.104 216.206 767.104 215.195 767.104 214.185C761.295 218.228 758.125 222.268 752.845 226.816C747.041 232.875 742.819 237.423 737.539 242.474ZM284.033 245.504C287.202 246.009 293.537 240.958 296.703 236.412C299.872 233.38 304.097 229.34 304.622 225.299C305.15 221.764 307.263 216.206 304.622 214.185C300.928 212.166 294.593 218.228 289.842 222.268C285.617 226.816 281.394 232.875 279.81 236.917C279.282 240.452 280.338 244.495 284.033 245.504ZM671.016 255.102C675.237 259.142 688.968 248.032 696.882 240.452C703.751 233.886 713.247 219.741 713.247 219.741C699.523 219.741 691.079 227.319 683.158 234.393C677.878 239.444 667.317 250.557 671.016 255.102Z" fill="#CC0A20"/>
<path fill-rule="evenodd" clip-rule="evenodd" d="M159.438 130.329C171.055 118.711 208.009 99.0132 242.325 88.9081C263.443 82.3422 289.842 78.3026 311.486 76.7831C331.55 76.2767 360.056 81.8357 361.112 94.461C362.697 102.546 344.22 111.639 325.212 120.731C306.735 129.323 282.976 135.888 245.494 145.994C216.457 154.073 198.508 159.632 168.414 165.691C161.023 167.205 155.216 169.224 147.296 170.237C156.272 172.257 162.607 174.783 171.583 178.32C181.084 181.35 188.476 185.393 197.451 190.443C245.494 187.414 275.588 186.403 324.156 186.908C368.504 187.917 394.903 188.422 439.249 191.455L436.61 198.021C392.788 196 366.391 194.484 322.574 194.484C280.866 193.978 255.523 195.495 213.816 197.01C219.623 199.537 232.821 208.628 240.215 218.228C245.494 225.299 251.829 231.361 251.829 241.969C250.245 258.132 237.046 268.236 221.21 275.814C205.369 284.4 190.06 287.937 165.245 291.98C137.793 296.525 108.227 296.525 98.7259 296.02C88.6961 295.01 78.1363 293.493 71.7984 292.988L14.7828 392L1.58435 383.917L58.0723 290.463C48.0425 290.969 32.2035 285.413 18.4773 278.846C8.97573 274.3 0 268.236 0 255.607C0 246.009 7.91944 237.928 17.4205 231.361C30.0938 223.784 38.0133 220.246 52.7956 216.206C72.3265 210.65 91.3344 205.596 107.173 204.083L121.428 179.328L93.4466 175.793L93.9753 170.237C101.895 169.731 107.173 169.224 114.565 168.218C120.9 167.205 126.179 165.691 132.514 164.678C140.433 150.534 152.575 138.415 159.438 130.329ZM270.306 89.4146C239.687 95.9805 216.457 105.579 193.757 118.204C178.444 126.79 162.607 141.948 148.881 161.652C185.309 154.579 207.484 149.527 242.853 138.921C274.531 130.329 300.928 122.25 324.684 112.145C335.244 108.606 341.051 105.579 344.22 102.04C345.802 100.527 351.609 98.5068 351.609 93.9607C351.609 89.4146 345.276 87.8952 342.635 87.8952C313.598 82.3422 297.231 84.362 270.306 89.4146ZM147.825 196.505C161.023 194.484 166.302 193.473 176.859 192.968C168.942 188.928 163.661 186.908 155.216 184.887C147.825 183.371 142.546 181.855 135.68 181.35L125.122 201.051C133.042 199.537 136.736 198.526 147.825 196.505ZM63.8815 278.846L102.423 214.69C94.5008 214.69 61.2431 221.257 38.5414 230.856C25.8687 236.917 10.5603 246.514 10.5603 255.102C10.5603 264.701 20.064 268.742 29.0371 272.279C39.0694 277.33 58.0723 278.846 63.8815 278.846ZM79.7205 280.36C104.004 283.392 118.259 283.392 142.546 281.875C173.693 280.36 183.725 277.33 201.674 270.763C219.623 265.207 238.103 255.102 238.103 241.969C238.631 230.856 221.21 215.701 209.594 207.618C204.84 204.083 196.923 201.051 193.757 200.545C180.556 201.051 170.527 202.061 156.272 204.083C143.074 205.596 134.626 208.123 121.428 211.155L79.7205 280.36Z" fill="#CC0A20"/>
</svg>
