<svg width="1045" height="315" viewBox="0 0 1045 315" fill="none" xmlns="http://www.w3.org/2000/svg">
<path fill-rule="evenodd" clip-rule="evenodd" d="M809.539 247.474C804.258 251.514 801.089 255.051 795.808 259.092C788.417 266.167 774.163 272.731 771.523 272.731C767.83 271.72 761.491 266.166 760.439 259.597C758.321 262.629 747.767 269.196 739.846 268.185C732.984 267.68 727.703 264.142 724.534 258.586C724.534 258.586 709.228 269.701 694.974 268.69C684.413 267.68 685.995 254.041 688.106 247.474C688.106 251.009 657.488 268.69 651.154 268.185C644.29 267.68 640.596 264.142 640.596 250.504C632.676 255.557 627.398 260.102 620.532 266.669C614.725 272.731 609.975 277.279 604.167 284.351L596.248 277.784L606.806 256.567C599.945 261.113 595.192 264.142 588.328 268.69C581.994 272.731 578.297 276.771 570.905 280.308C566.683 281.825 561.404 281.825 558.763 278.29C555.069 274.752 560.347 259.597 560.875 259.597C554.541 263.637 548.205 268.185 543.452 274.247C539.23 278.29 535.535 287.886 532.366 288.392C529.726 288.392 525.503 288.897 524.975 285.865C523.391 282.33 528.141 261.619 530.254 258.586L521.809 264.65C515.999 269.701 512.305 273.236 507.026 277.279C498.579 283.846 492.241 289.4 481.683 291.423C475.348 292.937 469.541 293.442 463.734 290.918C456.871 288.897 451.59 283.846 448.423 276.771C445.255 279.3 442.617 280.814 436.807 282.33C432.056 283.846 427.834 285.36 424.665 280.814C420.442 274.752 423.609 263.132 424.665 262.124C423.08 263.132 413.051 271.217 407.772 277.279C404.075 281.825 399.853 285.865 396.156 290.413L386.126 285.865L397.74 252.022C391.405 258.586 385.598 263.132 378.207 268.185C361.314 279.3 348.644 292.434 336.499 292.434C328.58 292.434 323.301 288.897 321.191 280.814C319.607 273.742 320.135 263.637 324.885 256.062C332.805 243.939 336.499 237.875 344.419 228.278C352.866 219.69 359.73 214.134 370.816 210.596C375.569 209.083 380.847 212.113 383.486 216.155C386.654 220.701 386.126 227.268 385.598 233.329C384.014 241.412 379.791 247.474 373.456 253.032C369.231 255.557 365.008 260.102 360.258 260.102C354.976 260.102 349.698 256.567 347.588 251.514C345.473 252.022 337.027 263.637 336.499 271.217C335.971 275.257 335.971 280.814 340.194 282.33C342.834 283.34 345.473 281.319 348.644 280.814C357.617 277.279 363.424 271.72 370.816 266.669C386.655 255.557 396.156 246.969 408.3 232.824L417.276 238.38L406.188 266.669C414.636 259.597 420.442 254.041 427.834 246.463C436.807 236.864 443.673 230.805 451.59 220.195L460.037 226.257C453.705 233.834 451.062 240.907 446.311 248.99C442.088 256.567 435.225 268.69 439.45 271.72C441.032 274.247 445.255 270.712 448.423 268.69C452.648 257.578 457.399 250.504 465.847 240.907C475.348 230.805 485.908 222.722 496.466 217.166C502.273 214.134 508.082 213.123 512.305 216.66C517.055 219.185 519.168 224.741 517.584 230.299C515.471 237.875 511.249 241.412 503.857 243.939C500.688 245.958 495.938 245.452 493.828 242.928C492.241 239.393 492.241 235.351 493.828 232.824C489.074 234.34 479.573 240.907 473.764 248.99C467.957 256.567 463.206 262.629 463.206 272.731C463.206 278.29 468.485 283.34 474.292 283.846C484.852 285.865 494.884 278.795 503.857 273.236C508.082 269.701 511.249 267.175 514.943 263.637L517.584 261.619C518.64 260.607 519.168 260.102 521.809 258.084C522.863 256.567 523.919 255.557 524.447 254.546V255.051C526.56 253.032 528.141 251.009 529.726 248.99C538.702 236.864 542.396 226.257 549.79 212.113C593.079 135.329 631.62 73.7039 670.689 19.1447L678.603 26.2171C635.315 84.3095 612.615 123.204 576.186 185.845C562.46 211.101 544.508 243.434 542.924 254.041C542.924 259.092 543.452 259.092 543.98 263.637C550.316 258.084 557.707 251.009 564.57 243.434C571.961 234.34 577.768 228.784 584.631 220.195L595.72 229.289C592.023 232.824 584.631 243.434 580.409 251.514C576.714 256.567 571.433 266.669 575.13 268.185C578.297 269.196 594.136 257.578 603.639 249.495C614.725 240.401 622.645 233.329 631.62 221.206L643.762 221.711L631.62 246.463C637.953 241.412 640.596 237.875 647.985 232.319C654.323 228.784 655.376 227.773 658.546 224.741C659.599 223.228 664.879 219.69 667.519 221.711C672.271 224.741 668.578 231.816 666.467 234.34C662.768 240.401 658.546 245.452 657.488 251.514C654.851 264.142 679.133 245.452 689.164 236.864C698.138 230.299 709.757 218.176 718.201 211.607C720.312 209.588 725.592 209.588 727.18 212.618C729.814 215.65 727.18 218.176 724.534 221.206C717.142 230.805 705.006 246.463 702.889 253.032C700.778 258.084 702.889 258.084 703.947 259.597C706.058 261.113 710.81 258.586 714.508 256.567C718.73 254.546 725.592 251.514 726.122 251.009C729.285 243.434 737.735 234.845 746.708 227.773C757.269 219.69 762.02 216.66 774.163 211.607C780.496 209.083 789.475 206.051 793.168 211.607C794.756 214.639 793.168 219.69 792.645 221.206C794.226 220.195 797.919 219.69 798.448 221.711C801.089 226.257 797.919 228.278 796.867 231.31C793.697 238.886 787.887 244.444 784.195 250.504C783.142 252.022 782.613 255.051 784.195 255.557C787.887 256.062 795.279 250.504 801.618 244.444L818.512 229.289C824.321 223.73 829.073 218.176 834.876 212.618C836.458 211.607 848.077 183.32 859.691 177.257C862.86 175.237 869.723 179.278 869.723 183.826C870.775 192.917 849.659 211.101 850.718 212.618C857.58 217.166 862.86 217.166 866.553 223.228C871.304 233.329 852.829 245.958 855.469 252.022C857.58 256.062 883.447 239.899 897.177 226.257C898.23 225.246 928.325 169.678 948.382 135.329C978.477 84.3094 998.54 54.5066 1031.8 5L1045 11.572C1011.74 58.5463 992.73 88.349 962.642 138.362C945.219 168.671 933.605 187.866 917.234 219.185C926.207 214.639 932.017 211.607 941.52 208.072C953.133 203.526 961.06 201 973.726 197.968L977.425 208.578C965.805 211.101 957.361 214.134 945.742 219.185C934.658 224.236 928.325 227.268 918.293 233.329C926.737 245.958 933.605 253.535 944.689 264.142C957.361 277.279 966.864 285.865 982.699 295.969L973.196 306.576C956.832 295.969 946.8 287.886 932.547 274.247C921.463 263.637 914.071 255.557 905.092 243.434C901.399 249.495 897.177 254.546 894.537 261.619C891.368 268.69 888.727 274.752 886.616 282.33L875.526 275.763C877.114 269.701 878.696 265.155 881.336 259.092C882.394 256.062 886.087 249.495 888.198 244.444C881.336 249.495 875.003 253.032 868.141 257.578C861.802 261.113 857.58 263.637 850.188 263.637C847.548 263.637 844.379 260.102 845.437 252.022C846.49 247.979 854.41 236.864 854.94 230.299C854.94 226.257 842.268 224.741 840.157 222.722C839.104 221.206 839.104 220.195 839.104 219.185C833.295 223.228 830.125 227.268 824.845 231.816C819.041 237.875 814.819 242.423 809.539 247.474ZM356.033 250.504C359.202 251.009 365.537 245.958 368.703 241.412C371.872 238.38 376.097 234.34 376.622 230.299C377.15 226.764 379.263 221.206 376.622 219.185C372.928 217.166 366.593 223.228 361.842 227.268C357.617 231.816 353.394 237.875 351.81 241.917C351.282 245.452 352.338 249.495 356.033 250.504ZM743.016 260.102C747.237 264.142 760.968 253.032 768.882 245.452C775.751 238.886 785.247 224.741 785.247 224.741C771.523 224.741 763.079 232.319 755.158 239.393C749.878 244.444 739.317 255.557 743.016 260.102Z" fill="#141313"/>
<path fill-rule="evenodd" clip-rule="evenodd" d="M231.438 135.329C243.055 123.711 280.009 104.013 314.325 93.9081C335.443 87.3422 361.842 83.3026 383.486 81.7831C403.55 81.2767 432.056 86.8357 433.112 99.461C434.697 107.546 416.22 116.639 397.212 125.731C378.735 134.323 354.976 140.888 317.494 150.994C288.457 159.073 270.508 164.632 240.414 170.691C233.023 172.205 227.216 174.224 219.296 175.237C228.272 177.257 234.607 179.783 243.583 183.32C253.084 186.35 260.476 190.393 269.451 195.443C317.494 192.414 347.588 191.403 396.156 191.908C440.504 192.917 466.903 193.422 511.249 196.455L508.61 203.021C464.788 201 438.391 199.484 394.574 199.484C352.866 198.978 327.524 200.495 285.816 202.01C291.623 204.537 304.821 213.628 312.215 223.228C317.494 230.299 323.829 236.361 323.829 246.969C322.245 263.132 309.046 273.236 293.21 280.814C277.369 289.4 262.06 292.937 237.245 296.98C209.793 301.525 180.227 301.525 170.726 301.02C160.696 300.01 150.136 298.493 143.798 297.988L135.881 315L123.5 305.5L130.072 295.464C120.042 295.969 104.203 290.413 90.4773 283.846C80.9757 279.3 72 273.236 72 260.607C72 251.009 79.9194 242.928 89.4205 236.361C102.094 228.784 110.013 225.246 124.796 221.206C144.326 215.65 163.334 210.596 179.173 209.083L193.428 184.328L165.447 180.793L165.975 175.237C173.895 174.731 179.173 174.224 186.565 173.218C192.9 172.205 198.179 170.691 204.514 169.678C212.433 155.534 224.575 143.415 231.438 135.329ZM342.306 94.4146C311.687 100.981 288.457 110.579 265.757 123.204C250.444 131.79 234.607 146.948 220.881 166.652C257.309 159.579 279.484 154.527 314.853 143.921C346.531 135.329 372.928 127.25 396.684 117.145C407.244 113.606 413.051 110.579 416.22 107.04C417.802 105.527 423.608 103.507 423.608 98.9607C423.608 94.4146 417.276 92.8952 414.635 92.8952C385.598 87.3422 369.231 89.362 342.306 94.4146ZM219.825 201.505C233.023 199.484 238.302 198.473 248.859 197.968C240.942 193.928 235.661 191.908 227.216 189.887C219.825 188.371 214.546 186.855 207.68 186.35L197.122 206.051C205.042 204.537 208.736 203.526 219.825 201.505ZM135.881 283.846L174.423 219.69C166.501 219.69 133.243 226.257 110.541 235.856C97.8687 241.917 82.5603 251.514 82.5603 260.102C82.5603 269.701 92.064 273.742 101.037 277.279C111.069 282.33 130.072 283.846 135.881 283.846ZM151.72 285.36C176.004 288.392 190.259 288.392 214.546 286.875C245.693 285.36 255.725 282.33 273.674 275.763C291.623 270.207 310.103 260.102 310.103 246.969C310.631 235.856 293.21 220.701 281.594 212.618C276.84 209.083 268.923 206.051 265.757 205.545C252.556 206.051 242.527 207.061 228.272 209.083C215.074 210.596 206.626 213.123 193.428 216.155L151.72 285.36Z" fill="#141313"/>
<path d="M90.1695 218.093C95.6483 215.519 103.585 209.637 108.28 206.696C107.989 204.858 107.888 202.816 108.034 200.719C101.774 205.419 95.0198 209.808 93.3012 209.269C90.5609 208.166 94.4755 200.813 97.214 197.135C100.344 191.253 105.823 183.531 108.563 180.958L100.344 174.339C95.2569 180.59 90.9523 184.634 85.4735 191.253C80.3865 196.767 74.9076 201.917 70.2116 205.959C69.8202 202.65 69.4288 202.65 69.4288 198.974C70.603 191.253 83.9097 167.72 94.0841 149.336C121.086 103.742 137.913 75.4315 170 33.1478L164.134 28C135.174 67.712 106.606 112.567 74.5181 168.456C69.0374 178.751 66.2989 186.472 59.6458 195.297L59.6032 195.351C58.4427 196.803 57.2798 198.258 55.7326 199.71L57.2866 200.712L60.0372 202.283C58.4711 204.49 54.9498 219.565 56.124 222.138C56.5159 224.345 59.6458 223.977 61.6029 223.977C63.9518 223.609 66.6903 216.624 69.8202 213.681C73.3331 209.282 78.0119 205.978 82.6937 203.044C82.7101 203.027 82.7239 203.018 82.735 203.018C82.7212 203.027 82.7075 203.035 82.6937 203.044C82.1282 203.633 78.508 214.122 81.1693 216.624C83.1269 219.197 87.0396 219.197 90.1695 218.093Z" fill="#141313"/>
<path fill-rule="evenodd" clip-rule="evenodd" d="M150.826 198.974C156.305 195.296 161.593 190.108 166.289 185.33V180.464C157.287 190.76 157.087 189.782 145.347 197.87C139.868 201.547 135.564 205.593 128.912 208.166C126.562 208.534 124.606 210.005 122.649 209.269C119.519 208.166 119.519 204.121 119.91 201.181C120.302 195.663 126.562 187.209 128.129 186.839C129.694 190.517 133.606 193.09 137.521 193.09C141.042 193.09 144.172 189.782 147.304 187.944C152 183.899 155.13 179.486 156.305 173.603C156.696 169.191 157.087 164.411 154.738 161.103C152.783 158.16 148.87 155.955 145.347 157.056C137.13 159.631 132.042 163.676 125.78 169.927C119.91 176.912 117.172 181.326 111.301 190.15C109.276 193.321 108.286 197.101 108.034 200.719C109.938 197.495 111.146 197.089 114.433 195.665L108.28 206.696C108.361 207.203 108.455 207.694 108.563 208.166C110.127 214.049 114.04 216.624 119.91 216.624C128.912 216.624 138.304 207.064 150.826 198.974ZM143.964 179.694C141.618 183.003 136.922 186.68 134.573 186.312C131.834 185.578 131.051 182.635 131.443 180.062C132.617 177.12 135.747 172.71 138.879 169.399C142.401 166.459 147.096 162.046 149.835 163.516C151.792 164.987 150.226 169.033 149.835 171.606C149.445 174.546 146.315 177.486 143.966 179.692L143.964 179.694Z" fill="#141313"/>
<path d="M108.328 199.928L106.316 204.794L106.718 206.415L108.731 206.821L113.963 201.55L115.573 194.656L110.743 196.278L108.328 199.928Z" fill="#141313"/>
<path d="M17.0165 218.24C13.3458 217.609 12.031 214.223 13.0722 208.083C13.8125 203.716 15.5305 198.395 18.2261 192.119C20.9448 185.705 24.3099 178.772 28.3213 171.317C32.3328 163.863 36.6177 156.315 41.1759 148.674C45.7574 140.896 50.3342 133.399 54.9065 126.181C59.4788 118.964 63.6736 112.454 67.4909 106.651C71.3915 100.863 74.5834 96.2164 77.0666 92.7118C77.2377 91.1965 77.7726 89.8141 78.6713 88.5645C79.6535 87.3293 80.4758 86.2771 81.1383 85.4082C78.2647 84.6328 75.3379 83.9185 72.3577 83.2653C69.4007 82.4755 66.4623 81.8295 63.5424 81.327C62.0408 81.0686 59.8185 80.7564 56.8755 80.3904C53.9325 80.0244 50.6211 79.8056 46.9413 79.7341C43.3681 79.5404 39.6953 79.6807 35.923 80.155C32.1738 80.4928 28.5938 81.3512 25.1832 82.7303C21.8792 83.9872 19.0666 85.8905 16.7454 88.44C14.4473 90.8531 12.9628 94.038 12.2919 97.9949C11.4821 102.77 11.5645 107.348 12.5389 111.729C13.6199 115.987 15.1572 119.833 17.151 123.265C19.2281 126.712 21.326 129.53 23.4445 131.721C23.5895 131.835 23.7714 132.042 23.9902 132.341C24.114 132.51 24.2497 132.709 24.3972 132.938C24.9118 133.448 25.1228 133.975 25.0303 134.521C24.984 134.794 24.8659 134.984 24.6759 135.092C24.509 135.063 24.3839 135.042 24.3005 135.027C23.9668 134.97 23.6029 134.837 23.2089 134.629C22.9215 134.299 22.1868 133.821 22.1868 133.821C19.7717 131.861 17.3241 129.333 14.8438 126.238C12.3866 123.007 10.4924 119.241 9.1612 114.939C7.85309 110.501 7.65018 105.622 8.55248 100.3C8.89952 98.2537 9.47825 96.1065 10.2887 93.8587C12.6506 87.5247 15.5435 82.6161 18.9674 79.133C22.4979 75.5277 26.2836 72.9494 30.3245 71.3979C34.4487 69.8609 38.5292 69.0886 42.5658 69.0811C46.709 68.9515 50.5742 69.1954 54.1615 69.8127C59.4172 70.7171 64.5271 72.2283 69.4912 74.3464C74.4785 76.328 79.431 78.5143 84.3488 80.9053C84.9279 80.022 85.5185 79.0704 86.1207 78.0506C86.8064 77.0452 87.4689 76.1762 88.1082 75.4437C88.9607 74.467 90.1423 73.8278 91.6531 73.5261C93.1639 73.2243 94.3364 73.1453 95.1706 73.2888C95.5043 73.3462 95.9817 73.5688 96.6028 73.9566C97.2471 74.2078 97.4998 74.7428 97.361 75.5615C97.3147 75.8344 96.8422 76.5956 95.9435 77.8452C95.0447 79.0948 94.1042 80.3372 93.1221 81.5725C92.2233 82.8221 91.6141 83.63 91.2944 83.9963C95.8414 86.0426 100.442 88.0278 105.095 89.952C109.855 91.7541 114.655 93.0715 119.493 93.9042C120.911 94.1482 122.077 93.8573 122.99 93.0314C123.986 92.2198 124.762 91.4406 125.318 90.6937C125.98 89.8248 126.562 89.4333 127.062 89.5195C127.646 89.62 128.108 90.1908 128.446 91.2321C128.808 92.1369 128.908 93.0668 128.746 94.022C128.63 94.7042 128.413 95.2284 128.093 95.5947C127.796 95.8245 127.458 96.0472 127.078 96.2626C123.955 97.972 121.082 100.988 118.46 105.312C115.839 109.635 113.358 113.631 111.018 117.301C110.782 117.682 110.374 118.314 109.795 119.197C109.239 119.944 108.795 120.289 108.461 120.231C108.211 120.188 108.143 119.826 108.259 119.143C108.56 117.37 109.282 115.388 110.426 113.197C111.677 110.885 112.875 108.633 114.019 106.443C115.186 104.116 115.897 102.202 116.151 100.701C116.29 99.8828 116.121 99.3622 115.643 99.1396C114.424 98.2277 113.099 97.4378 111.666 96.7701C110.318 96.1167 108.969 95.4633 107.62 94.8099C104.422 93.417 101.242 92.1677 98.0812 91.0621C94.9433 89.82 91.7522 88.6389 88.5077 87.5189C83.1846 94.6071 77.5025 102.546 71.4615 111.337C65.4437 119.99 59.4282 129.136 53.4153 138.774C47.4857 148.426 41.9617 158.218 36.8433 168.15C31.8083 178.096 27.5935 187.762 24.1989 197.148C23.5645 198.865 22.9486 200.725 22.3513 202.728C21.7308 204.868 21.2586 206.894 20.9347 208.804C20.7265 210.032 20.6319 211.35 20.6508 212.757C20.6697 214.165 21.138 214.947 22.0557 215.105C22.723 215.22 23.4251 215.13 24.162 214.836C24.959 214.692 25.733 214.685 26.4838 214.814C26.5672 214.828 26.7341 214.857 26.9844 214.9C27.2346 214.943 27.3366 215.101 27.2904 215.374C27.1978 215.92 26.3846 216.412 24.8507 216.85C23.3771 217.439 21.8131 217.802 20.1586 217.938C18.5644 218.226 17.517 218.326 17.0165 218.24Z" fill="#141313"/>
<path d="M19.9912 131.829L21.6958 130.178L25.9223 133.955L23.9998 136.028L19.9912 131.829Z" fill="#141313"/>
<path d="M25.4507 216.629L24.622 214.725L29.0142 212.356L30.1203 214.567L25.4507 216.629Z" fill="#141313"/>
<path d="M143.5 200.5L166 175.5L172.5 180L165.5 186L143.5 200.5Z" fill="#141313"/>
<path fill-rule="evenodd" clip-rule="evenodd" d="M801.539 242.474C796.258 246.514 793.089 250.051 787.808 254.092C780.417 261.167 766.163 267.731 763.523 267.731C759.83 266.72 753.491 261.166 752.439 254.597C750.321 257.629 739.767 264.196 731.846 263.185C724.984 262.68 719.703 259.142 716.534 253.586C716.534 253.586 701.228 264.701 686.974 263.69C676.413 262.68 677.995 249.041 680.106 242.474C680.106 246.009 649.488 263.69 643.154 263.185C636.29 262.68 632.596 259.142 632.596 245.504C624.676 250.557 619.398 255.102 612.532 261.669C606.725 267.731 601.975 272.279 596.167 279.351L588.248 272.784L598.806 251.567C591.945 256.113 587.192 259.142 580.328 263.69C573.994 267.731 570.297 271.771 562.905 275.308C558.683 276.825 553.404 276.825 550.763 273.29C547.069 269.752 552.347 254.597 552.875 254.597C546.541 258.637 540.205 263.185 535.452 269.247C531.23 273.29 527.535 282.886 524.366 283.392C521.726 283.392 517.503 283.897 516.975 280.865C515.391 277.33 520.141 256.619 522.254 253.586L513.809 259.65C507.999 264.701 504.305 268.236 499.026 272.279C490.579 278.846 484.241 284.4 473.683 286.423C467.348 287.937 461.541 288.442 455.734 285.918C448.871 283.897 443.59 278.846 440.423 271.771C437.255 274.3 434.617 275.814 428.807 277.33C424.056 278.846 419.834 280.36 416.665 275.814C412.442 269.752 415.609 258.132 416.665 257.124C415.08 258.132 405.051 266.217 399.772 272.279C396.075 276.825 391.853 280.865 388.156 285.413L378.126 280.865L389.74 247.022C383.405 253.586 377.598 258.132 370.207 263.185C353.314 274.3 340.644 287.434 328.499 287.434C320.58 287.434 315.301 283.897 313.191 275.814C311.607 268.742 312.135 258.637 316.885 251.062C324.805 238.939 328.499 232.875 336.419 223.278C344.866 214.69 351.73 209.134 362.816 205.596C367.569 204.083 372.847 207.113 375.486 211.155C378.654 215.701 378.126 222.268 377.598 228.329C376.014 236.412 371.791 242.474 365.456 248.032C361.231 250.557 357.008 255.102 352.258 255.102C346.976 255.102 341.698 251.567 339.588 246.514C337.473 247.022 329.027 258.637 328.499 266.217C327.971 270.257 327.971 275.814 332.194 277.33C334.834 278.34 337.473 276.319 340.644 275.814C349.617 272.279 355.424 266.72 362.816 261.669C378.655 250.557 388.156 241.969 400.3 227.824L409.276 233.38L398.188 261.669C406.636 254.597 412.442 249.041 419.834 241.463C428.807 231.864 435.673 225.805 443.59 215.195L452.037 221.257C445.705 228.834 443.062 235.907 438.311 243.99C434.088 251.567 427.225 263.69 431.45 266.72C433.032 269.247 437.255 265.712 440.423 263.69C444.648 252.578 449.399 245.504 457.847 235.907C467.348 225.805 477.908 217.722 488.466 212.166C494.273 209.134 500.082 208.123 504.305 211.66C509.055 214.185 511.168 219.741 509.584 225.299C507.471 232.875 503.249 236.412 495.857 238.939C492.688 240.958 487.938 240.452 485.828 237.928C484.241 234.393 484.241 230.351 485.828 227.824C481.074 229.34 471.573 235.907 465.764 243.99C459.957 251.567 455.206 257.629 455.206 267.731C455.206 273.29 460.485 278.34 466.292 278.846C476.852 280.865 486.884 273.795 495.857 268.236C500.082 264.701 503.249 262.175 506.943 258.637L509.584 256.619C510.64 255.607 511.168 255.102 513.809 253.084C514.863 251.567 515.919 250.557 516.447 249.546V250.051C518.56 248.032 520.141 246.009 521.726 243.99C530.702 231.864 534.396 221.257 541.79 207.113C585.079 130.329 623.62 68.7039 662.689 14.1447L670.603 21.2171C627.315 79.3095 604.615 118.204 568.186 180.845C554.46 206.101 536.508 238.434 534.924 249.041C534.924 254.092 535.452 254.092 535.98 258.637C542.316 253.084 549.707 246.009 556.57 238.434C563.961 229.34 569.768 223.784 576.631 215.195L587.72 224.289C584.023 227.824 576.631 238.434 572.409 246.514C568.714 251.567 563.433 261.669 567.13 263.185C570.297 264.196 586.136 252.578 595.639 244.495C606.725 235.401 614.645 228.329 623.62 216.206L635.762 216.711L623.62 241.463C629.953 236.412 632.596 232.875 639.985 227.319C646.323 223.784 647.376 222.773 650.546 219.741C651.599 218.228 656.879 214.69 659.519 216.711C664.271 219.741 660.578 226.816 658.467 229.34C654.768 235.401 650.546 240.452 649.488 246.514C646.851 259.142 671.133 240.452 681.164 231.864C690.138 225.299 701.757 213.176 710.201 206.607C712.312 204.588 717.592 204.588 719.18 207.618C721.814 210.65 719.18 213.176 716.534 216.206C709.142 225.805 697.006 241.463 694.889 248.032C692.778 253.084 694.889 253.084 695.947 254.597C698.058 256.113 702.81 253.586 706.508 251.567C710.73 249.546 717.592 246.514 718.122 246.009C721.285 238.434 729.735 229.845 738.708 222.773C749.269 214.69 754.02 211.66 766.163 206.607C772.496 204.083 781.475 201.051 785.168 206.607C786.756 209.639 785.168 214.69 784.645 216.206C786.226 215.195 789.919 214.69 790.448 216.711C793.089 221.257 789.919 223.278 788.867 226.31C785.697 233.886 779.887 239.444 776.195 245.504C775.142 247.022 774.613 250.051 776.195 250.557C779.887 251.062 787.279 245.504 793.618 239.444L810.512 224.289C816.321 218.73 821.073 213.176 826.876 207.618C828.458 206.607 840.077 178.32 851.691 172.257C854.86 170.237 861.723 174.278 861.723 178.826C862.775 187.917 841.659 206.101 842.718 207.618C849.58 212.166 854.86 212.166 858.553 218.228C863.304 228.329 844.829 240.958 847.469 247.022C849.58 251.062 875.447 234.899 889.177 221.257C890.23 220.246 920.325 164.678 940.382 130.329C970.477 79.3094 990.54 49.5066 1023.8 0L1037 6.57201C1003.74 53.5463 984.73 83.349 954.642 133.362C937.219 163.671 925.605 182.866 909.234 214.185C918.207 209.639 924.017 206.607 933.52 203.072C945.133 198.526 953.06 196 965.726 192.968L969.425 203.578C957.805 206.101 949.361 209.134 937.742 214.185C926.658 219.236 920.325 222.268 910.293 228.329C918.737 240.958 925.605 248.535 936.689 259.142C949.361 272.279 958.864 280.865 974.699 290.969L965.196 301.576C948.832 290.969 938.8 282.886 924.547 269.247C913.463 258.637 906.071 250.557 897.092 238.434C893.399 244.495 889.177 249.546 886.537 256.619C883.368 263.69 880.727 269.752 878.616 277.33L867.526 270.763C869.114 264.701 870.696 260.155 873.336 254.092C874.394 251.062 878.087 244.495 880.198 239.444C873.336 244.495 867.003 248.032 860.141 252.578C853.802 256.113 849.58 258.637 842.188 258.637C839.548 258.637 836.379 255.102 837.437 247.022C838.49 242.979 846.41 231.864 846.94 225.299C846.94 221.257 834.268 219.741 832.157 217.722C831.104 216.206 831.104 215.195 831.104 214.185C825.295 218.228 822.125 222.268 816.845 226.816C811.041 232.875 806.819 237.423 801.539 242.474ZM348.033 245.504C351.202 246.009 357.537 240.958 360.703 236.412C363.872 233.38 368.097 229.34 368.622 225.299C369.15 221.764 371.263 216.206 368.622 214.185C364.928 212.166 358.593 218.228 353.842 222.268C349.617 226.816 345.394 232.875 343.81 236.917C343.282 240.452 344.338 244.495 348.033 245.504ZM735.016 255.102C739.237 259.142 752.968 248.032 760.882 240.452C767.751 233.886 777.247 219.741 777.247 219.741C763.523 219.741 755.079 227.319 747.158 234.393C741.878 239.444 731.317 250.557 735.016 255.102Z" fill="#CC0A20"/>
<path fill-rule="evenodd" clip-rule="evenodd" d="M223.438 130.329C235.055 118.711 272.009 99.0132 306.325 88.9081C327.443 82.3422 353.842 78.3026 375.486 76.7831C395.55 76.2767 424.056 81.8357 425.112 94.461C426.697 102.546 408.22 111.639 389.212 120.731C370.735 129.323 346.976 135.888 309.494 145.994C280.457 154.073 262.508 159.632 232.414 165.691C225.023 167.205 219.216 169.224 211.296 170.237C220.272 172.257 226.607 174.783 235.583 178.32C245.084 181.35 252.476 185.393 261.451 190.443C309.494 187.414 339.588 186.403 388.156 186.908C432.504 187.917 458.903 188.422 503.249 191.455L500.61 198.021C456.788 196 430.391 194.484 386.574 194.484C344.866 193.978 319.524 195.495 277.816 197.01C283.623 199.537 296.821 208.628 304.215 218.228C309.494 225.299 315.829 231.361 315.829 241.969C314.245 258.132 301.046 268.236 285.21 275.814C269.369 284.4 254.06 287.937 229.245 291.98C201.793 296.525 172.227 296.525 162.726 296.02C152.696 295.01 142.136 293.493 135.798 292.988L127.881 308L116.5 298.5L122.072 290.464C112.042 290.969 96.2035 285.413 82.4773 278.846C72.9757 274.3 64 268.236 64 255.607C64 246.009 71.9194 237.928 81.4205 231.361C94.0938 223.784 102.013 220.246 116.796 216.206C136.326 210.65 155.334 205.596 171.173 204.083L185.428 179.328L157.447 175.793L157.975 170.237C165.895 169.731 171.173 169.224 178.565 168.218C184.9 167.205 190.179 165.691 196.514 164.678C204.433 150.534 216.575 138.415 223.438 130.329ZM334.306 89.4146C303.687 95.9805 280.457 105.579 257.757 118.204C242.444 126.79 226.607 141.948 212.881 161.652C249.309 154.579 271.484 149.527 306.853 138.921C338.531 130.329 364.928 122.25 388.684 112.145C399.244 108.606 405.051 105.579 408.22 102.04C409.802 100.527 415.608 98.5068 415.608 93.9607C415.608 89.4146 409.276 87.8952 406.635 87.8952C377.598 82.3422 361.231 84.362 334.306 89.4146ZM211.825 196.505C225.023 194.484 230.302 193.473 240.859 192.968C232.942 188.928 227.661 186.908 219.216 184.887C211.825 183.371 206.546 181.855 199.68 181.35L189.122 201.051C197.042 199.537 200.736 198.526 211.825 196.505ZM127.881 278.846L166.423 214.69C158.501 214.69 125.243 221.257 102.541 230.856C89.8687 236.917 74.5603 246.514 74.5603 255.102C74.5603 264.701 84.064 268.742 93.0371 272.279C103.069 277.33 122.072 278.846 127.881 278.846ZM143.72 280.36C168.004 283.392 182.259 283.392 206.546 281.875C237.693 280.36 247.725 277.33 265.674 270.763C283.623 265.207 302.103 255.102 302.103 241.969C302.631 230.856 285.21 215.701 273.594 207.618C268.84 204.083 260.923 201.051 257.757 200.545C244.556 201.051 234.527 202.061 220.272 204.083C207.074 205.596 198.626 208.123 185.428 211.155L143.72 280.36Z" fill="#CC0A20"/>
<path d="M82.1695 213.093C87.6483 210.519 95.5849 204.637 100.28 201.696C99.9893 199.858 99.8879 197.816 100.034 195.719C93.7743 200.419 87.0198 204.808 85.3012 204.269C82.5609 203.166 86.4755 195.813 89.214 192.135C92.3438 186.253 97.8228 178.531 100.563 175.958L92.3439 169.339C87.2569 175.59 82.9523 179.634 77.4735 186.253C72.3865 191.767 66.9076 196.917 62.2116 200.959C61.8202 197.65 61.4288 197.65 61.4288 193.974C62.603 186.253 75.9097 162.72 86.0841 144.336C113.086 98.7421 129.913 70.4315 162 28.1478L156.134 23C127.174 62.712 98.6055 107.567 66.5181 163.456C61.0374 173.751 58.2989 181.472 51.6458 190.297L51.6032 190.351C50.4427 191.803 49.2798 193.258 47.7326 194.71L49.2866 195.712L52.0372 197.283C50.4711 199.49 46.9498 214.565 48.124 217.138C48.5159 219.345 51.6458 218.977 53.6029 218.977C55.9518 218.609 58.6903 211.624 61.8202 208.681C65.3331 204.282 70.0119 200.978 74.6937 198.044C74.7101 198.027 74.7239 198.018 74.735 198.018C74.7212 198.027 74.7075 198.035 74.6937 198.044C74.1282 198.633 70.508 209.122 73.1693 211.624C75.1269 214.197 79.0396 214.197 82.1695 213.093Z" fill="#CC0A20"/>
<path fill-rule="evenodd" clip-rule="evenodd" d="M142.826 193.974C148.305 190.296 153.593 185.108 158.289 180.33V175.464C149.287 185.76 149.087 184.782 137.347 192.87C131.868 196.547 127.564 200.593 120.912 203.166C118.562 203.534 116.606 205.005 114.649 204.269C111.519 203.166 111.519 199.121 111.91 196.181C112.302 190.663 118.562 182.209 120.129 181.839C121.694 185.517 125.606 188.09 129.521 188.09C133.042 188.09 136.172 184.782 139.304 182.944C144 178.899 147.13 174.486 148.305 168.603C148.696 164.191 149.087 159.411 146.738 156.103C144.783 153.16 140.87 150.955 137.347 152.056C129.13 154.631 124.042 158.676 117.78 164.927C111.91 171.912 109.172 176.326 103.301 185.15C101.276 188.321 100.286 192.101 100.034 195.719C101.938 192.495 103.146 192.089 106.433 190.665L100.28 201.696C100.361 202.203 100.455 202.694 100.563 203.166C102.127 209.049 106.04 211.624 111.91 211.624C120.912 211.624 130.304 202.064 142.826 193.974ZM135.964 174.694C133.618 178.003 128.922 181.68 126.573 181.312C123.834 180.578 123.051 177.635 123.443 175.062C124.617 172.12 127.747 167.71 130.879 164.399C134.401 161.459 139.096 157.046 141.835 158.516C143.792 159.987 142.226 164.033 141.835 166.606C141.445 169.546 138.315 172.486 135.966 174.692L135.964 174.694Z" fill="#CC0A20"/>
<path d="M100.328 194.928L98.3157 199.794L98.7182 201.415L100.731 201.821L105.963 196.55L107.573 189.656L102.743 191.278L100.328 194.928Z" fill="#CC0A20"/>
<path d="M9.0165 213.24C5.34582 212.609 4.03104 209.223 5.07215 203.083C5.8125 198.716 7.53047 193.395 10.2261 187.119C12.9448 180.705 16.3099 173.772 20.3213 166.317C24.3328 158.863 28.6177 151.315 33.1759 143.674C37.7574 135.896 42.3342 128.399 46.9065 121.181C51.4788 113.964 55.6736 107.454 59.4909 101.651C63.3915 95.8629 66.5834 91.2164 69.0666 87.7118C69.2377 86.1965 69.7726 84.8141 70.6713 83.5645C71.6535 82.3293 72.4758 81.2771 73.1383 80.4082C70.2647 79.6328 67.3379 78.9185 64.3577 78.2653C61.4007 77.4755 58.4623 76.8295 55.5424 76.327C54.0408 76.0686 51.8185 75.7564 48.8755 75.3904C45.9325 75.0244 42.6211 74.8056 38.9413 74.7341C35.3681 74.5404 31.6953 74.6807 27.923 75.155C24.1738 75.4928 20.5938 76.3512 17.1832 77.7303C13.8792 78.9872 11.0666 80.8905 8.74538 83.44C6.44733 85.8531 4.96283 89.038 4.29189 92.9949C3.48213 97.7705 3.56446 102.348 4.53888 106.729C5.61985 110.987 7.15721 114.833 9.15096 118.265C11.2281 121.712 13.326 124.53 15.4445 126.721C15.5895 126.835 15.7714 127.042 15.9902 127.341C16.114 127.51 16.2497 127.709 16.3972 127.938C16.9118 128.448 17.1228 128.975 17.0303 129.521C16.984 129.794 16.8659 129.984 16.6759 130.092C16.509 130.063 16.3839 130.042 16.3005 130.027C15.9668 129.97 15.6029 129.837 15.2089 129.629C14.9215 129.299 14.1868 128.821 14.1868 128.821C11.7717 126.861 9.32406 124.333 6.84378 121.238C4.38664 118.007 2.49245 114.241 1.1612 109.939C-0.146909 105.501 -0.349815 100.622 0.552483 95.3004C0.89952 93.2537 1.47825 91.1065 2.28869 88.8587C4.65058 82.5247 7.54349 77.6161 10.9674 74.133C14.4979 70.5277 18.2836 67.9494 22.3245 66.3979C26.4487 64.8609 30.5292 64.0886 34.5658 64.0811C38.709 63.9515 42.5742 64.1954 46.1615 64.8127C51.4172 65.7171 56.5271 67.2283 61.4912 69.3464C66.4785 71.328 71.431 73.5143 76.3488 75.9053C76.9279 75.022 77.5185 74.0704 78.1207 73.0506C78.8064 72.0452 79.4689 71.1762 80.1082 70.4437C80.9607 69.467 82.1423 68.8278 83.6531 68.5261C85.1639 68.2243 86.3364 68.1453 87.1706 68.2888C87.5043 68.3462 87.9817 68.5688 88.6028 68.9566C89.2471 69.2078 89.4998 69.7428 89.361 70.5615C89.3147 70.8344 88.8422 71.5956 87.9435 72.8452C87.0447 74.0948 86.1042 75.3372 85.1221 76.5725C84.2233 77.8221 83.6141 78.63 83.2944 78.9963C87.8414 81.0426 92.4416 83.0278 97.0952 84.952C101.855 86.7541 106.655 88.0715 111.493 88.9042C112.911 89.1482 114.077 88.8573 114.99 88.0314C115.986 87.2198 116.762 86.4406 117.318 85.6937C117.98 84.8248 118.562 84.4333 119.062 84.5195C119.646 84.62 120.108 85.1908 120.446 86.2321C120.808 87.1369 120.908 88.0668 120.746 89.022C120.63 89.7042 120.413 90.2284 120.093 90.5947C119.796 90.8245 119.458 91.0472 119.078 91.2626C115.955 92.972 113.082 95.9883 110.46 100.312C107.839 104.635 105.358 108.631 103.018 112.301C102.782 112.682 102.374 113.314 101.795 114.197C101.239 114.944 100.795 115.289 100.461 115.231C100.211 115.188 100.143 114.826 100.259 114.143C100.56 112.37 101.282 110.388 102.426 108.197C103.677 105.885 104.875 103.633 106.019 101.443C107.186 99.1162 107.897 97.2023 108.151 95.7014C108.29 94.8828 108.121 94.3622 107.643 94.1396C106.424 93.2277 105.099 92.4378 103.666 91.7701C102.318 91.1167 100.969 90.4633 99.6199 89.8099C96.4218 88.417 93.2422 87.1677 90.0812 86.0621C86.9433 84.82 83.7522 83.6389 80.5077 82.5189C75.1846 89.6071 69.5025 97.5464 63.4615 106.337C57.4437 114.99 51.4282 124.136 45.4153 133.774C39.4857 143.426 33.9617 153.218 28.8433 163.15C23.8083 173.096 19.5935 182.762 16.1989 192.148C15.5645 193.865 14.9486 195.725 14.3513 197.728C13.7308 199.868 13.2586 201.894 12.9347 203.804C12.7265 205.032 12.6319 206.35 12.6508 207.757C12.6697 209.165 13.138 209.947 14.0557 210.105C14.723 210.22 15.4251 210.13 16.162 209.836C16.959 209.692 17.733 209.685 18.4838 209.814C18.5672 209.828 18.7341 209.857 18.9844 209.9C19.2346 209.943 19.3366 210.101 19.2904 210.374C19.1978 210.92 18.3846 211.412 16.8507 211.85C15.3771 212.439 13.8131 212.802 12.1586 212.938C10.5644 213.226 9.51705 213.326 9.0165 213.24Z" fill="#CC0A20"/>
<path d="M11.9912 126.829L13.6958 125.178L17.9223 128.955L15.9998 131.028L11.9912 126.829Z" fill="#CC0A20"/>
<path d="M17.4507 211.629L16.622 209.725L21.0142 207.356L22.1203 209.567L17.4507 211.629Z" fill="#CC0A20"/>
<path d="M135.5 195.5L158 170.5L164.5 175L157.5 181L135.5 195.5Z" fill="#CC0A20"/>
<path d="M985.5 213V213.5H986H988.027H988.527V213V206.859H991.689C991.733 206.859 991.776 206.859 991.819 206.859L995.204 213.234L995.345 213.5H995.646H998H998.838L998.44 212.763L994.923 206.243C994.989 206.212 995.054 206.18 995.118 206.146L995.12 206.145C996.036 205.659 996.731 204.98 997.185 204.108C997.63 203.252 997.846 202.283 997.846 201.213C997.846 200.143 997.63 199.169 997.186 198.303C996.733 197.42 996.035 196.732 995.114 196.24C994.18 195.735 993.018 195.5 991.657 195.5H986H985.5V196V213ZM991.624 204H988.527V198.326H991.591C992.451 198.326 993.091 198.461 993.546 198.694L993.546 198.694L993.549 198.696C994.011 198.928 994.329 199.246 994.527 199.649C994.738 200.077 994.851 200.594 994.851 201.213C994.851 201.833 994.737 202.338 994.53 202.746L994.529 202.748C994.339 203.125 994.029 203.427 993.565 203.651L993.565 203.651L993.563 203.652C993.111 203.872 992.475 204 991.624 204Z" fill="#CC0A20" stroke="#CC0A20"/>
<path d="M991 223C1001.49 223 1010 214.493 1010 204C1010 193.507 1001.49 185 991 185C980.507 185 972 193.507 972 204C972 214.493 980.507 223 991 223Z" stroke="#CC0A20" stroke-width="4"/>
</svg>
